<svg xmlns="http://www.w3.org/2000/svg" xmlns:xlink="http://www.w3.org/1999/xlink" width="24" height="22" viewBox="0 0 24 22">
    <defs>
        <path id="92yta" d="M715 35h20a2 2 0 1 1 0 4h-20a2 2 0 0 1 0-4z" />
        <path id="92ytb" d="M715 44h20a2 2 0 1 1 0 4h-20a2 2 0 0 1 0-4z" />
        <path id="92ytc" d="M715 53h20a2 2 0 0 1 0 4h-20a2 2 0 0 1 0-4z" />
    </defs>
    <g id="mobile-menu">
        <g transform="translate(-713 -35)">
            <use fill="#fff" xlink:href="#92yta" />
        </g>
        <g transform="translate(-713 -35)">
            <use fill="#fff" xlink:href="#92ytb" />
        </g>
        <g transform="translate(-713 -35)">
            <use fill="#fff" xlink:href="#92ytc" />
        </g>
    </g>
</svg>